<?xml version="1.0" encoding="iso-8859-1"?>
<!-- Uploaded to: SVG Repo, www.svgrepo.com, Generator: SVG Repo Mixer Tools -->
<!DOCTYPE svg PUBLIC "-//W3C//DTD SVG 1.1//EN" "http://www.w3.org/Graphics/SVG/1.1/DTD/svg11.dtd">
<svg fill="#000000" version="1.1" id="Capa_1" xmlns="http://www.w3.org/2000/svg" xmlns:xlink="http://www.w3.org/1999/xlink" 
	 width="30px" height="30px" viewBox="0 0 489.297 489.297"
	 xml:space="preserve">
<g>
	<g>
		<path d="M275.099,146.836l-0.035-43.234l29.836-0.02L244.993,0l-59.766,103.664l29.836-0.021l0.053,67.225l29.877,32.736
			c44.752,0,81.16,36.408,81.16,81.16c0,44.752-36.408,81.16-81.16,81.16l-30,30.09v93.283h60v-66.58
			c63.477-13.789,111.16-70.406,111.16-137.953C386.153,217.255,338.522,160.666,275.099,146.836z"/>
		<path d="M398.079,254.086c2.027,10.057,3.074,20.332,3.074,30.678c0,9.881-0.957,19.698-2.807,29.322h28.74v-60H398.079z"/>
		<path d="M164.572,284.086c0-38.05,26.686-69.964,62.318-78.067l-26.77-29.331l-0.021-26.483
			c-46.818,15.57-82.734,55.002-93.321,103.882H62.21v60h44.569c10.579,48.843,46.447,88.253,93.214,103.849v-28.121l27.449-27.533
			C191.532,354.384,164.572,322.334,164.572,284.086z"/>
	</g>
</g>
</svg>