<?xml version="1.0" standalone="no"?>
<!DOCTYPE svg PUBLIC "-//W3C//DTD SVG 20010904//EN"
 "http://www.w3.org/TR/2001/REC-SVG-20010904/DTD/svg10.dtd">
<svg version="1.0" xmlns="http://www.w3.org/2000/svg"
 width="23.000000pt" height="20.000000pt" viewBox="0 0 473.000000 458.000000"
 preserveAspectRatio="xMidYMid meet">
<metadata>
Created by potrace 1.16, written by Peter Selinger 2001-2019
</metadata>
<g transform="translate(0.000000,458.000000) scale(0.100000,-0.100000)"
fill="#000000" stroke="none">
<path d="M2113 4194 c-102 -206 -183 -377 -181 -379 2 -3 68 9 146 25 78 16
212 40 299 54 154 26 243 45 243 52 0 10 -311 624 -316 624 -3 0 -89 -169
-191 -376z"/>
<path d="M4620 4023 c-47 -3 -263 -20 -365 -28 -516 -42 -1217 -122 -1363
-155 -23 -6 -64 -10 -90 -10 -26 0 -74 -7 -107 -14 -33 -8 -89 -18 -125 -21
-36 -4 -117 -18 -180 -31 -63 -12 -135 -26 -160 -29 -25 -3 -52 -8 -60 -10 -9
-3 -88 -18 -175 -35 -88 -16 -243 -48 -345 -70 -102 -23 -214 -48 -250 -56
-76 -17 -176 -44 -310 -85 -52 -15 -142 -42 -200 -58 -147 -42 -188 -55 -196
-64 -4 -4 -20 -7 -35 -7 -15 0 -29 -4 -31 -8 -2 -5 -59 -27 -128 -50 -198 -65
-231 -78 -305 -111 -117 -53 -117 -53 -111 -76 3 -15 -6 -28 -34 -50 -34 -26
-39 -35 -40 -73 0 -24 7 -56 15 -73 14 -27 19 -29 50 -23 49 9 47 -18 -5 -52
-24 -16 -40 -34 -40 -46 0 -34 32 -78 57 -78 30 0 38 -17 19 -39 -12 -14 -14
-25 -7 -47 5 -16 12 -41 15 -56 5 -21 12 -28 31 -28 14 0 36 -13 54 -32 l30
-32 40 19 c38 17 42 17 67 0 25 -16 29 -16 133 20 58 20 115 41 126 45 91 40
142 57 680 230 33 11 112 35 175 54 63 20 149 46 190 60 95 31 609 166 633
166 24 0 21 -21 -12 -87 -29 -57 -65 -134 -123 -263 -16 -36 -38 -83 -48 -105
-48 -106 -166 -397 -218 -540 -144 -393 -278 -842 -372 -1250 -17 -77 -40
-173 -51 -213 -10 -40 -19 -88 -19 -106 0 -19 -3 -36 -8 -38 -7 -3 -62 -269
-62 -304 0 -10 9 -25 19 -31 11 -7 22 -26 26 -43 6 -26 11 -30 40 -30 21 0 38
6 43 17 15 25 42 9 42 -26 0 -34 15 -41 91 -47 45 -3 49 -1 55 21 3 14 11 25
18 26 6 0 44 2 85 2 l75 2 8 33 c5 18 15 35 22 38 8 3 20 19 26 35 13 32 34
36 64 14 20 -15 72 -10 93 9 7 6 22 77 33 156 11 80 27 186 35 235 8 50 16
104 19 120 12 82 59 334 81 440 38 175 42 194 59 260 8 33 24 103 36 155 12
52 29 124 40 160 10 36 35 126 55 200 77 285 211 666 306 876 11 22 19 46 19
52 0 14 124 257 165 324 28 46 33 48 100 63 38 8 129 24 200 35 72 11 173 27
225 36 183 29 506 75 625 89 139 17 246 38 245 48 -1 23 3 27 28 27 16 0 36 8
45 18 19 20 23 52 7 52 -5 0 -10 6 -10 14 0 15 10 19 68 31 35 7 52 29 52 69
0 13 5 26 11 28 5 2 13 22 16 46 6 42 5 42 -26 42 -26 0 -32 4 -29 17 4 20 74
40 141 42 33 1 36 3 25 15 -8 8 -23 15 -33 17 -48 10 -16 55 46 65 33 6 39 10
33 26 -4 14 0 21 15 25 29 8 28 49 -1 57 -13 3 -25 5 -28 4 -3 -1 -25 -3 -50
-5z"/>
<path d="M3016 3087 c-27 -41 -175 -355 -212 -449 -115 -297 -276 -844 -353
-1203 -40 -187 -109 -540 -115 -595 -4 -30 -14 -89 -22 -130 -10 -57 -84 -594
-84 -616 0 -2 527 -4 1171 -4 644 0 1169 4 1167 8 -22 55 -1524 3012 -1530
3012 -4 0 -14 -10 -22 -23z m388 -1646 c165 -58 291 -185 348 -349 32 -95 32
-249 0 -344 -56 -164 -180 -288 -348 -350 -85 -31 -263 -31 -348 0 -168 62
-292 186 -348 350 -18 53 -23 89 -23 172 0 83 5 119 23 172 65 188 219 324
417 368 64 14 212 4 279 -19z"/>
<path d="M1935 2849 c-49 -15 -126 -39 -170 -51 -44 -13 -154 -48 -244 -78
l-163 -55 -479 -970 c-263 -533 -547 -1109 -631 -1278 -84 -170 -154 -312
-156 -318 -2 -5 212 -9 561 -9 l564 0 22 98 c11 53 24 113 27 132 8 50 59 288
100 470 107 467 281 1056 418 1415 13 33 38 98 55 145 49 127 150 367 182 432
31 61 37 99 17 97 -7 -1 -53 -14 -103 -30z"/>
</g>
</svg>
